<svg width="24" height="24" viewBox="0 0 24 24" fill="none" xmlns="http://www.w3.org/2000/svg">
<path d="M12 5.70259L11.463 6.22619C11.6042 6.37095 11.7978 6.45259 12 6.45259C12.2022 6.45259 12.3958 6.37095 12.537 6.22619L12 5.70259ZM12.6851 5.00005L13.222 5.52366L12.6851 5.00005ZM11.315 5.00007L11.8519 4.47646L11.8519 4.47646L11.315 5.00007ZM3.45393 12.76L2.89742 13.2628L3.45393 12.76ZM9.18026 19.0982L8.62374 19.601L9.18026 19.0982ZM14.8197 19.0982L15.3762 19.601L14.8197 19.0982ZM20.5461 12.76L21.1026 13.2628L20.5461 12.76ZM20.4018 5.00005L19.8648 5.52366L20.4018 5.00005ZM3.5982 5.00007L4.13517 5.52367L3.5982 5.00007ZM17 5.75005C16.5858 5.75005 16.25 6.08583 16.25 6.50005C16.25 6.91426 16.5858 7.25005 17 7.25005V5.75005ZM18.25 8.50005C18.25 8.91426 18.5858 9.25005 19 9.25005C19.4142 9.25005 19.75 8.91426 19.75 8.50005H18.25ZM12.537 6.22619L13.222 5.52366L12.1481 4.47644L11.463 5.17898L12.537 6.22619ZM10.778 5.52368L11.463 6.22619L12.537 5.17898L11.8519 4.47646L10.778 5.52368ZM2.89742 13.2628L8.62374 19.601L9.73677 18.5954L4.01044 12.2572L2.89742 13.2628ZM15.3762 19.601L21.1026 13.2628L19.9896 12.2572L14.2632 18.5954L15.3762 19.601ZM19.8648 5.52366C21.6618 7.36644 21.7178 10.3443 19.9896 12.2572L21.1026 13.2628C23.3607 10.7634 23.2892 6.88686 20.9388 4.47644L19.8648 5.52366ZM20.9388 4.47644C18.5135 1.9893 14.5734 1.9893 12.1481 4.47644L13.222 5.52366C15.0586 3.64023 18.0283 3.64023 19.8648 5.52366L20.9388 4.47644ZM4.13517 5.52367C5.97175 3.64024 8.94141 3.64024 10.778 5.52368L11.8519 4.47646C9.42666 1.98931 5.4865 1.98931 3.06123 4.47646L4.13517 5.52367ZM8.62374 19.601C10.4428 21.6144 13.5572 21.6144 15.3762 19.601L14.2632 18.5954C13.0397 19.9496 10.9603 19.9496 9.73677 18.5954L8.62374 19.601ZM3.06123 4.47646C0.710775 6.88688 0.639347 10.7634 2.89742 13.2628L4.01044 12.2572C2.28222 10.3443 2.33823 7.36646 4.13517 5.52367L3.06123 4.47646ZM17 7.25005C17.6903 7.25005 18.25 7.80969 18.25 8.50005H19.75C19.75 6.98127 18.5188 5.75005 17 5.75005V7.25005Z" fill="#28303F"/>
</svg>
